<svg width="" height="" viewBox="0 0 24 24" fill="none" xmlns="http://www.w3.org/2000/svg">
<path d="M15.5303 9.84084C15.8232 9.54795 15.8232 9.07307 15.5303 8.78018C15.2374 8.48729 14.7626 8.48729 14.4697 8.78018L12 11.2499L9.53033 8.78018C9.23744 8.48729 8.76256 8.48729 8.46967 8.78018C8.17678 9.07307 8.17678 9.54795 8.46967 9.84084L10.9393 12.3105L8.46967 14.7802C8.17678 15.0731 8.17678 15.5479 8.46967 15.8408C8.76256 16.1337 9.23744 16.1337 9.53033 15.8408L12 13.3712L14.4697 15.8408C14.7626 16.1337 15.2374 16.1337 15.5303 15.8408C15.8232 15.5479 15.8232 15.0731 15.5303 14.7802L13.0607 12.3105L15.5303 9.84084Z" fill="#CC0000"/>
<path fill-rule="evenodd" clip-rule="evenodd" d="M12 1.25C6.06294 1.25 1.25 6.06294 1.25 12C1.25 17.9371 6.06294 22.75 12 22.75C17.9371 22.75 22.75 17.9371 22.75 12C22.75 6.06294 17.9371 1.25 12 1.25ZM2.75 12C2.75 6.89137 6.89137 2.75 12 2.75C17.1086 2.75 21.25 6.89137 21.25 12C21.25 17.1086 17.1086 21.25 12 21.25C6.89137 21.25 2.75 17.1086 2.75 12Z" fill="#CC0000"/>
</svg>
