<svg width="" height="" viewBox="0 0 16 16" fill="none" xmlns="http://www.w3.org/2000/svg">
<g clip-path="url(#clip0_1011_34680)">
<path d="M8.00065 1.33398C4.32065 1.33398 1.33398 4.32065 1.33398 8.00065C1.33398 11.6807 4.32065 14.6673 8.00065 14.6673C11.6807 14.6673 14.6673 11.6807 14.6673 8.00065C14.6673 4.32065 11.6807 1.33398 8.00065 1.33398ZM7.33398 13.2873C4.70065 12.9607 2.66732 10.7207 2.66732 8.00065C2.66732 7.58732 2.72065 7.19398 2.80732 6.80732L6.00065 10.0007V10.6673C6.00065 11.4007 6.60065 12.0007 7.33398 12.0007V13.2873ZM11.934 11.594C11.7607 11.054 11.2673 10.6673 10.6673 10.6673H10.0007V8.66732C10.0007 8.30065 9.70065 8.00065 9.33398 8.00065H5.33398V6.66732H6.66732C7.03398 6.66732 7.33398 6.36732 7.33398 6.00065V4.66732H8.66732C9.40065 4.66732 10.0007 4.06732 10.0007 3.33398V3.06065C11.954 3.85398 13.334 5.76732 13.334 8.00065C13.334 9.38732 12.8007 10.6473 11.934 11.594Z" fill="black"/>
</g>
<defs>
<clipPath id="clip0_1011_34680">
<rect width="16" height="16" fill="white"/>
</clipPath>
</defs>
</svg>
