<svg width="177" height="48" viewBox="0 0 177 48" fill="none" xmlns="http://www.w3.org/2000/svg">
<path fill-rule="evenodd" clip-rule="evenodd" d="M85.853 21.9431H86.486C86.7548 21.9431 86.9881 21.9223 87.2031 21.9084V24.0305H85.853V26.5659H87.2031V28.9553C86.8978 28.9553 86.559 28.9633 86.1746 28.9633H82.8262V17.2617H86.1046C86.4971 17.2617 86.8613 17.2617 87.2031 17.2866V19.6134C87.0043 19.5905 86.772 19.5726 86.5397 19.5726H85.853V21.9431ZM98.9037 17.2866V19.1673L98.8956 19.1504C98.8165 19.4564 98.7708 19.7187 98.6948 19.98C98.6238 20.2442 98.5528 20.4966 98.4858 20.7301L97.296 24.5869H100.507L101.202 26.868H96.591L95.9611 28.9633H92.7324L96.8436 17.2617L98.9037 17.2866ZM87.2031 21.9084C87.62 21.8716 87.9395 21.8031 88.1485 21.677C88.4295 21.4941 88.5745 21.1961 88.5745 20.7758C88.5745 20.3377 88.4528 20.0327 88.1627 19.8578C87.9811 19.7356 87.6545 19.6491 87.2031 19.6134V17.2866C87.9618 17.2995 88.537 17.3363 88.893 17.39C89.4428 17.4684 89.9033 17.6205 90.2837 17.8321C90.7402 18.0735 91.0607 18.3964 91.2838 18.8037C91.5283 19.2081 91.6358 19.6681 91.6358 20.1976C91.6358 20.8593 91.4715 21.371 91.1327 21.7763C90.7655 22.1628 90.236 22.4499 89.4722 22.6744C90.3172 22.741 90.9795 23.0182 91.4532 23.5279C91.9442 24.0564 92.1714 24.7439 92.1714 25.6142C92.1714 26.2451 92.0466 26.7846 91.7758 27.2664C91.505 27.7334 91.1134 28.1089 90.6265 28.3673C90.2117 28.5739 89.7086 28.7289 89.106 28.8223C88.677 28.8988 88.0298 28.9305 87.2031 28.9553V26.5659C87.8563 26.5441 88.3229 26.4617 88.606 26.2779C88.9295 26.112 89.0969 25.7921 89.0969 25.345C89.0969 24.8562 88.9295 24.5035 88.6496 24.3296C88.3747 24.1299 87.8888 24.0454 87.2031 24.0305V21.9084ZM120.399 28.9633V17.2617H123.625V22.576L127.409 17.2617H131.19L126.774 22.9694L131.573 28.9633H127.521L123.625 23.7076V28.9633H120.399ZM106.194 28.9633V17.2617H109.319L113.83 23.2754C113.915 23.4096 114.056 23.653 114.259 24.0305C114.459 24.3911 114.671 24.8372 114.907 25.3449C114.85 24.8561 114.8 24.4299 114.758 24.0454C114.742 23.6689 114.73 23.336 114.73 23.034V17.2617H117.841V28.9633H114.73L110.215 22.9148C110.135 22.7856 109.989 22.5551 109.795 22.1915C109.595 21.813 109.379 21.3709 109.145 20.8851C109.194 21.3639 109.251 21.8031 109.286 22.1627C109.302 22.5551 109.319 22.89 109.319 23.1811V28.9633H106.194ZM101.202 26.868L100.507 24.5869L99.3075 20.7301C99.272 20.6158 99.2121 20.4201 99.1543 20.1578C99.0904 19.9054 99.0011 19.5726 98.9037 19.1673V17.2866L100.931 17.2617L105.052 28.9633H101.813L101.202 26.868Z" fill="black"/>
<path fill-rule="evenodd" clip-rule="evenodd" d="M51.7992 17.2145V20.8396C51.3496 20.3559 50.9192 19.9789 50.4777 19.7355C50.0403 19.4994 49.5615 19.3885 49.0554 19.3885C48.1472 19.3885 47.3932 19.6962 46.8015 20.3715C46.235 21.0085 45.9427 21.8537 45.9427 22.9049C45.9427 23.8817 46.2572 24.6875 46.8197 25.3504C47.4154 25.9967 48.1654 26.3084 49.0554 26.3084C49.5615 26.3084 50.0403 26.1924 50.4777 25.9563C50.9192 25.7274 51.3496 25.3504 51.7992 24.8325V28.4825C51.2821 28.7104 50.7801 28.9206 50.2892 29.047C49.757 29.1806 49.258 29.2314 48.744 29.2314C48.0988 29.2314 47.483 29.1651 46.9507 28.9921C46.3913 28.8461 45.8923 28.6047 45.4196 28.2826C44.5497 27.6736 43.8743 26.9019 43.4106 25.9822C42.9369 25.0417 42.7151 24.0039 42.7151 22.8428C42.7151 21.9096 42.8623 21.0582 43.1516 20.3042C43.4378 19.5346 43.8965 18.8551 44.4831 18.2285C45.0517 17.6423 45.6786 17.2 46.3913 16.9058C47.0878 16.6055 47.8831 16.4688 48.744 16.4688C49.258 16.4688 49.757 16.5164 50.2892 16.6448C50.7801 16.7815 51.2821 16.9566 51.7992 17.2145ZM29.9245 28.9206V16.736H33.1542V21.4891H37.4634V16.736H40.7001V28.9206H37.4634V23.9645H33.1542V28.9206H29.9245ZM28.1001 17.2145V20.8396C27.6536 20.3559 27.2211 19.9789 26.7786 19.7355C26.3553 19.4994 25.8674 19.3885 25.3704 19.3885C24.429 19.3885 23.682 19.6962 23.1085 20.3715C22.538 21.0085 22.2426 21.8537 22.2426 22.9049C22.2426 23.8817 22.547 24.6875 23.1226 25.3504C23.7193 25.9967 24.4653 26.3084 25.3704 26.3084C25.8674 26.3084 26.3553 26.1924 26.7786 25.9563C27.2211 25.7274 27.6536 25.3504 28.1001 24.8325V28.4825C27.578 28.7104 27.083 28.9206 26.577 29.047C26.0639 29.1806 25.5589 29.2314 25.0459 29.2314C24.4007 29.2314 23.7859 29.1651 23.2486 28.9921C22.6922 28.8461 22.1973 28.6047 21.7316 28.2826C20.8516 27.6736 20.1772 26.9019 19.7045 25.9822C19.2378 25.0417 19.0059 24.0039 19.0059 22.8428C19.0059 21.9096 19.1732 21.0582 19.4585 20.3042C19.7508 19.5346 20.1883 18.8551 20.782 18.2285C21.3566 17.6423 21.9765 17.2 22.6791 16.9058C23.3917 16.6055 24.1659 16.4688 25.0459 16.4688C25.5589 16.4688 26.0639 16.5164 26.577 16.6448C27.083 16.7815 27.578 16.9566 28.1001 17.2145ZM10.1263 28.9206V16.736H17.3759V19.4238H13.2632V21.5253H17.14V24.1385H13.2632V26.1924H17.3759V28.9206H10.1263ZM59.4662 16.4812V19.2726C58.5711 19.2726 57.8312 19.6247 57.2365 20.3042C56.6428 20.9868 56.3585 21.8423 56.3585 22.8656C56.3585 23.8972 56.6428 24.7569 57.2214 25.426C57.796 26.1065 58.5489 26.4328 59.4662 26.4328V29.2511C58.6145 29.2511 57.796 29.0864 57.0258 28.7736C56.2517 28.4401 55.5824 27.9823 54.9796 27.3743C54.3718 26.7704 53.9131 26.0868 53.5906 25.3141C53.2862 24.5404 53.1239 23.7294 53.1239 22.8656C53.1239 21.9832 53.2862 21.167 53.5906 20.4036C53.9131 19.6247 54.3718 18.9442 54.9796 18.3373C55.5824 17.751 56.2517 17.2932 57.0258 16.9566C57.796 16.6252 58.6145 16.4812 59.4662 16.4812ZM2.66213 28.9206V19.6247H0V16.736H8.5408V19.6247H5.88673V28.9206H2.66213ZM81.4084 28.9206H78.3834L77.6889 23.6517C77.6496 23.2882 77.5911 22.8925 77.5599 22.4202C77.5185 21.9624 77.4893 21.4621 77.456 20.9298C77.3875 21.4487 77.2202 22.0939 77.0075 22.8656C76.943 23.0241 76.9167 23.1483 76.8986 23.2157L75.2868 28.9206H73.1357L71.5239 23.2157C71.5038 23.1483 71.4786 23.0241 71.4151 22.8656C71.2034 22.0939 71.0401 21.4487 70.9927 20.9298C70.9574 21.3938 70.9191 21.8537 70.8597 22.3146C70.8284 22.7558 70.773 23.2157 70.7226 23.6517L70.022 28.9206H67.0161L68.8386 16.736H72.0491L73.8373 23.0241C73.8373 23.0686 73.8726 23.1483 73.8837 23.2571C74.0681 23.8133 74.175 24.2815 74.2103 24.6875C74.2294 24.4658 74.2637 24.2297 74.3413 23.9645C74.3927 23.6983 74.4764 23.3752 74.5671 23.0147L76.3785 16.736H79.5819L81.4084 28.9206ZM59.4662 29.2511V26.4328C60.3613 26.4328 61.0809 26.1065 61.6757 25.426C62.2784 24.7403 62.5526 23.8972 62.5526 22.8656C62.5526 21.8423 62.2784 20.9868 61.6636 20.3042C61.0719 19.6247 60.3432 19.2726 59.4662 19.2726V16.4812C60.3008 16.4812 61.1102 16.6252 61.8964 16.9566C62.6665 17.2932 63.3651 17.751 63.9547 18.3373C64.5384 18.9442 64.996 19.6247 65.3115 20.4036C65.6381 21.167 65.7964 21.9832 65.7964 22.8656C65.7964 23.7294 65.6381 24.556 65.3115 25.3328C65.0061 26.0868 64.5384 26.7704 63.9547 27.3743C63.3469 27.9823 62.6665 28.4401 61.8742 28.7736C61.1102 29.0864 60.3008 29.2511 59.4662 29.2511Z" fill="#ED1C24"/>
<path fill-rule="evenodd" clip-rule="evenodd" d="M158.223 17.099L151.978 23.3922L158.223 29.714L151.978 36.001L139.473 23.3922L151.978 10.8008L158.223 17.099ZM177.001 23.3922L164.494 10.8008L158.223 17.099L164.494 23.3922L158.223 29.714L164.494 36.001L177.001 23.3922Z" fill="#ED1C24"/>
</svg>
